<svg width="540" height="610" viewBox="0 0 540 610" fill="none" xmlns="http://www.w3.org/2000/svg">
<g opacity="0.05" filter="url(#filter0_b_1035_50833)">
<path d="M504 135.951C522.564 146.669 534 166.477 534 187.913L534 422.631C534 444.067 522.564 463.874 504 474.592L300.728 591.951C282.164 602.669 259.292 602.669 240.728 591.951L37.4565 474.592C18.8925 463.874 7.45652 444.067 7.45652 422.631L7.45653 187.913C7.45653 166.477 18.8925 146.669 37.4565 135.951L240.728 18.5922C259.292 7.87426 282.164 7.87426 300.728 18.5922L504 135.951Z" fill="#0075FF" fill-opacity="0.5"/>
<path d="M532.75 187.913L532.75 422.631C532.75 443.62 521.552 463.015 503.375 473.51L300.103 590.869C281.926 601.363 259.531 601.363 241.353 590.869L38.0815 473.51C19.9042 463.015 8.70654 443.62 8.7065 422.631L8.70653 187.913C8.70652 166.923 19.9042 147.528 38.0815 137.034L241.353 19.6748C259.531 9.18008 281.926 9.18008 300.103 19.6748L503.375 137.034C521.552 147.528 532.75 166.923 532.75 187.913Z" stroke="url(#paint0_linear_1035_50833)" stroke-opacity="0.75" stroke-width="2.5"/>
</g>
<g opacity="0.25" filter="url(#filter1_b_1035_50833)">
<path d="M478 157.238C492.851 165.813 502 181.659 502 198.808L502 411.382C502 428.531 492.851 444.377 478 452.951L293.905 559.238C279.054 567.813 260.756 567.813 245.905 559.238L61.8104 452.951C46.9591 444.377 37.8104 428.531 37.8104 411.382L37.8104 198.808C37.8104 181.659 46.9591 165.813 61.8104 157.238L245.905 50.9512C260.756 42.3768 279.054 42.3768 293.905 50.9512L478 157.238Z" fill="#0075FF" fill-opacity="0.5"/>
<path d="M501 198.808L501 411.382C501 428.173 492.042 443.689 477.5 452.085L293.405 558.372C278.863 566.768 260.947 566.768 246.405 558.372L62.3103 452.085C47.7685 443.689 38.8104 428.173 38.8103 411.382L38.8104 198.808C38.8104 182.016 47.7685 166.5 62.3104 158.104L246.405 51.8172C260.947 43.4215 278.863 43.4215 293.405 51.8172L477.5 158.104C492.042 166.5 501 182.016 501 198.808Z" stroke="url(#paint1_linear_1035_50833)" stroke-opacity="0.75" stroke-width="2"/>
</g>
<g opacity="0.75" filter="url(#filter2_bd_1035_50833)">
<path d="M450.7 175.867C463.621 183.327 471.58 197.113 471.58 212.033L471.58 396.972C471.58 411.892 463.621 425.678 450.7 433.138L290.537 525.607C277.617 533.067 261.698 533.067 248.777 525.607L88.615 433.138C75.6944 425.678 67.735 411.892 67.735 396.972L67.735 212.033C67.735 197.113 75.6944 183.327 88.615 175.867L248.778 83.3975C261.698 75.9378 277.617 75.9379 290.538 83.3976L450.7 175.867Z" fill="#0075FF" fill-opacity="0.5" shape-rendering="crispEdges"/>
<path d="M470.71 212.033L470.71 396.972C470.71 411.581 462.916 425.08 450.265 432.384L290.102 524.854C277.451 532.158 261.864 532.158 249.212 524.854L89.05 432.384C76.3986 425.08 68.605 411.581 68.605 396.972L68.605 212.033C68.605 197.424 76.3986 183.925 89.05 176.621L249.213 84.151C261.864 76.8467 277.451 76.8467 290.103 84.151L450.265 176.621C462.916 183.925 470.71 197.424 470.71 212.033Z" stroke="url(#paint2_linear_1035_50833)" stroke-opacity="0.75" stroke-width="1.74" shape-rendering="crispEdges"/>
</g>
<g filter="url(#filter3_bd_1035_50833)">
<path d="M422.12 193.15C435.041 200.61 443 214.396 443 229.315L443 381.095C443 396.014 435.041 409.8 422.12 417.26L290.675 493.15C277.754 500.61 261.836 500.61 248.915 493.15L117.47 417.26C104.549 409.8 96.5898 396.014 96.5898 381.095L96.5898 229.315C96.5898 214.396 104.549 200.61 117.47 193.15L248.915 117.26C261.836 109.8 277.754 109.8 290.675 117.26L422.12 193.15Z" fill="#0B69D7"/>
<path d="M442.13 229.315L442.13 381.095C442.13 395.703 434.336 409.202 421.685 416.507L290.24 492.397C277.589 499.701 262.001 499.701 249.35 492.397L117.905 416.507C105.253 409.202 97.4598 395.704 97.4598 381.095L97.4598 229.315C97.4598 214.707 105.253 201.208 117.905 193.903L249.35 118.014C262.001 110.709 277.589 110.709 290.24 118.014L421.685 193.903C434.336 201.208 442.13 214.707 442.13 229.315Z" stroke="url(#paint3_linear_1035_50833)" stroke-opacity="0.75" stroke-width="1.74"/>
</g>
<rect x="201.209" y="270.8" width="15.547" height="34.3418" fill="white"/>
<path d="M201.209 308.064H216.756V362.216L208.982 380.39L201.209 362.216V308.064Z" fill="white"/>
<path fill-rule="evenodd" clip-rule="evenodd" d="M339.099 229.88H227.576V378.218H339.099V229.88ZM236.249 240.993H330.42V271.199H236.249V240.993ZM275.544 295.123H327.209V312.951H275.544V295.123ZM327.209 333.265H275.544V351.093H327.209V333.265ZM247.563 307.532L242.893 302.862L240.35 305.405L247.563 312.617L261.988 298.192L259.445 295.65L247.563 307.532ZM242.893 340.737L247.563 345.407L259.445 333.524L261.988 336.067L247.563 350.491L240.35 343.279L242.893 340.737Z" fill="white"/>
<defs>
<filter id="filter0_b_1035_50833" x="-55.0435" y="-51.9463" width="651.543" height="714.436" filterUnits="userSpaceOnUse" color-interpolation-filters="sRGB">
<feFlood flood-opacity="0" result="BackgroundImageFix"/>
<feGaussianBlur in="BackgroundImageFix" stdDeviation="31.25"/>
<feComposite in2="SourceAlpha" operator="in" result="effect1_backgroundBlur_1035_50833"/>
<feBlend mode="normal" in="SourceGraphic" in2="effect1_backgroundBlur_1035_50833" result="shape"/>
</filter>
<filter id="filter1_b_1035_50833" x="-12.1897" y="-5.47949" width="564.19" height="621.149" filterUnits="userSpaceOnUse" color-interpolation-filters="sRGB">
<feFlood flood-opacity="0" result="BackgroundImageFix"/>
<feGaussianBlur in="BackgroundImageFix" stdDeviation="25"/>
<feComposite in2="SourceAlpha" operator="in" result="effect1_backgroundBlur_1035_50833"/>
<feBlend mode="normal" in="SourceGraphic" in2="effect1_backgroundBlur_1035_50833" result="shape"/>
</filter>
<filter id="filter2_bd_1035_50833" x="17.7351" y="34.3027" width="503.845" height="553.859" filterUnits="userSpaceOnUse" color-interpolation-filters="sRGB">
<feFlood flood-opacity="0" result="BackgroundImageFix"/>
<feGaussianBlur in="BackgroundImageFix" stdDeviation="21.75"/>
<feComposite in2="SourceAlpha" operator="in" result="effect1_backgroundBlur_1035_50833"/>
<feColorMatrix in="SourceAlpha" type="matrix" values="0 0 0 0 0 0 0 0 0 0 0 0 0 0 0 0 0 0 127 0" result="hardAlpha"/>
<feOffset dy="6.96"/>
<feGaussianBlur stdDeviation="25"/>
<feComposite in2="hardAlpha" operator="out"/>
<feColorMatrix type="matrix" values="0 0 0 0 0 0 0 0 0 0.458824 0 0 0 0 1 0 0 0 0.5 0"/>
<feBlend mode="normal" in2="effect1_backgroundBlur_1035_50833" result="effect2_dropShadow_1035_50833"/>
<feBlend mode="normal" in="SourceGraphic" in2="effect2_dropShadow_1035_50833" result="shape"/>
</filter>
<filter id="filter3_bd_1035_50833" x="46.5898" y="68.1653" width="446.41" height="487.54" filterUnits="userSpaceOnUse" color-interpolation-filters="sRGB">
<feFlood flood-opacity="0" result="BackgroundImageFix"/>
<feGaussianBlur in="BackgroundImageFix" stdDeviation="21.75"/>
<feComposite in2="SourceAlpha" operator="in" result="effect1_backgroundBlur_1035_50833"/>
<feColorMatrix in="SourceAlpha" type="matrix" values="0 0 0 0 0 0 0 0 0 0 0 0 0 0 0 0 0 0 127 0" result="hardAlpha"/>
<feOffset dy="6.96"/>
<feGaussianBlur stdDeviation="25"/>
<feComposite in2="hardAlpha" operator="out"/>
<feColorMatrix type="matrix" values="0 0 0 0 0 0 0 0 0 0.458824 0 0 0 0 1 0 0 0 0.5 0"/>
<feBlend mode="normal" in2="effect1_backgroundBlur_1035_50833" result="effect2_dropShadow_1035_50833"/>
<feBlend mode="normal" in="SourceGraphic" in2="effect2_dropShadow_1035_50833" result="shape"/>
</filter>
<linearGradient id="paint0_linear_1035_50833" x1="266.467" y1="-19.7208" x2="261.896" y2="691.526" gradientUnits="userSpaceOnUse">
<stop stop-color="white"/>
<stop offset="0.760417" stop-color="white" stop-opacity="0"/>
<stop offset="1" stop-color="white"/>
</linearGradient>
<linearGradient id="paint1_linear_1035_50833" x1="266.149" y1="18.5882" x2="262.119" y2="645.608" gradientUnits="userSpaceOnUse">
<stop stop-color="white"/>
<stop offset="0.760417" stop-color="white" stop-opacity="0"/>
<stop offset="1" stop-color="white"/>
</linearGradient>
<linearGradient id="paint2_linear_1035_50833" x1="266.389" y1="55.2418" x2="262.883" y2="600.749" gradientUnits="userSpaceOnUse">
<stop stop-color="white"/>
<stop offset="0.760417" stop-color="white" stop-opacity="0"/>
<stop offset="1" stop-color="white"/>
</linearGradient>
<linearGradient id="paint3_linear_1035_50833" x1="266.992" y1="91.3942" x2="263.984" y2="559.319" gradientUnits="userSpaceOnUse">
<stop stop-color="white"/>
<stop offset="0.760417" stop-color="white" stop-opacity="0"/>
<stop offset="1" stop-color="white"/>
</linearGradient>
</defs>
</svg>
